<svg xmlns="http://www.w3.org/2000/svg" viewBox="0 0 32 32" width="32" height="32">
  <defs>
    <linearGradient id="grad1" x1="0%" y1="0%" x2="100%" y2="100%">
      <stop offset="0%" style="stop-color:#F54927;stop-opacity:1" />
      <stop offset="100%" style="stop-color:#dc3545;stop-opacity:1" />
    </linearGradient>
  </defs>
  
  <!-- Background circle -->
  <circle cx="16" cy="16" r="15" fill="url(#grad1)" stroke="#fff" stroke-width="1"/>
  
  <!-- Globe/World -->
  <circle cx="16" cy="16" r="8" fill="none" stroke="#fff" stroke-width="1.5"/>
  <path d="M8 16h16" stroke="#fff" stroke-width="1.5"/>
  <path d="M16 8c0 0 2 2 2 4s-2 4-2 4" stroke="#fff" stroke-width="1.5" fill="none"/>
  <path d="M16 8c0 0-2 2-2 4s2 4 2 4" stroke="#fff" stroke-width="1.5" fill="none"/>
  
  <!-- Airplane -->
  <path d="M12 14l4-2 4 2 2-1-2-1-4-2-4 2-2 1z" fill="#fff"/>
  <path d="M16 12l-2 4 2 4 2-4z" fill="#fff"/>
</svg> 