<?xml version="1.0" standalone="no"?>
<!DOCTYPE svg PUBLIC "-//W3C//DTD SVG 20010904//EN"
 "http://www.w3.org/TR/2001/REC-SVG-20010904/DTD/svg10.dtd">
<svg version="1.0" xmlns="http://www.w3.org/2000/svg"
 width="195.000000pt" height="252.000000pt" viewBox="0 0 195.000000 252.000000"
 preserveAspectRatio="xMidYMid meet">
<metadata>
Created by potrace 1.16, written by Peter Selinger 2001-2019
</metadata>
<g transform="translate(0.000000,252.000000) scale(0.100000,-0.100000)"
fill="#000000" stroke="none">
<path d="M776 2394 c-291 -53 -567 -284 -677 -568 -63 -163 -74 -368 -29 -541
65 -249 419 -787 725 -1102 96 -99 102 -103 143 -103 24 0 55 6 70 14 77 40
463 509 636 773 242 370 288 731 131 1043 -105 208 -320 390 -550 463 -120 39
-303 47 -449 21z m66 -239 c-120 -111 -209 -248 -246 -376 -12 -42 -36 -222
-36 -269 0 -14 -154 31 -237 70 -46 21 -83 42 -83 45 0 4 7 35 16 69 61 239
294 456 548 511 114 25 116 22 38 -50z m415 1 c65 -30 159 -94 195 -132 l27
-29 -24 -58 c-39 -97 -86 -168 -165 -247 -121 -121 -250 -179 -444 -196 l-79
-7 7 84 c12 133 23 178 68 269 34 69 59 102 137 181 92 93 180 159 211 159 8
0 38 -11 67 -24z m413 -573 c20 -182 -22 -337 -126 -460 -104 -122 -302 -207
-415 -178 -90 22 -166 95 -257 245 -66 109 -67 106 35 113 218 16 422 119 582
294 34 37 78 94 99 127 l36 61 18 -59 c10 -33 22 -97 28 -143z m-1229 -257
c35 -8 85 -17 112 -21 31 -4 47 -11 47 -20 0 -31 132 -273 176 -322 27 -32 40
-53 31 -53 -49 0 -201 35 -262 61 -150 62 -256 205 -299 401 l-6 26 69 -29
c38 -16 97 -35 132 -43z m826 -639 c-60 -78 -166 -203 -260 -307 l-57 -64 -28
32 c-193 222 -324 383 -317 390 1 2 31 -2 66 -8 35 -6 132 -13 215 -17 153 -6
268 6 385 42 24 7 46 11 48 9 2 -2 -21 -37 -52 -77z"/>
</g>
</svg>
